<svg xmlns="http://www.w3.org/2000/svg" xmlns:xlink="http://www.w3.org/1999/xlink" width="300" zoomAndPan="magnify" viewBox="0 0 224.87999 225" height="300" preserveAspectRatio="xMidYMid meet" version="1.0"><defs><g/><clipPath id="f36e914f01"><path d="M 53.21875 99 L 171.65625 99 L 171.65625 158 L 53.21875 158 Z M 53.21875 99 " clip-rule="nonzero"/></clipPath><clipPath id="bfc195cf05"><path d="M 67 68.238281 L 158 68.238281 L 158 98 L 67 98 Z M 67 68.238281 " clip-rule="nonzero"/></clipPath><clipPath id="55c79d1aa9"><path d="M 89 148 L 136 148 L 136 202.414062 L 89 202.414062 Z M 89 148 " clip-rule="nonzero"/></clipPath></defs><g clip-path="url(#f36e914f01)"><path fill="#000000" d="M 138.132812 134.398438 C 140.695312 129.84375 141.320312 125.292969 138.804688 120.308594 C 138.589844 120.863281 138.421875 121.101562 138.40625 121.347656 C 138.304688 123.296875 137.367188 124.894531 136.261719 126.414062 C 135.25 127.804688 134.203125 129.175781 133.175781 130.5625 C 132.859375 130.992188 132.566406 131.445312 132.214844 131.964844 C 131.023438 131.03125 130.296875 129.679688 128.734375 129.070312 C 128.824219 129.613281 128.871094 130.003906 128.953125 130.386719 C 129.433594 132.691406 129.730469 134.988281 129.210938 137.355469 C 128.828125 139.097656 127.957031 140.386719 126.375 141.195312 C 125.574219 141.605469 124.761719 141.984375 123.96875 142.398438 C 123.699219 142.539062 123.464844 142.753906 122.847656 143.195312 C 125.972656 142.875 128.3125 141.933594 130.230469 139.773438 C 130.796875 140.925781 130.21875 141.691406 129.785156 142.398438 C 129.324219 143.152344 128.746094 143.871094 128.09375 144.460938 C 127.492188 145.003906 126.765625 145.484375 126.011719 145.761719 C 125.1875 146.0625 124.269531 146.097656 123.359375 146.253906 C 125.472656 147.320312 127.382812 146.277344 129.34375 145.542969 C 129.277344 146.769531 129.082031 147.179688 128.214844 147.871094 C 127.445312 148.484375 126.574219 148.910156 125.574219 148.945312 C 124.683594 148.980469 123.785156 148.953125 122.789062 148.953125 C 124.023438 149.777344 124.023438 149.777344 127.339844 149.960938 C 127.300781 150.277344 127.335938 150.621094 127.207031 150.886719 C 126.855469 151.632812 126.5 152.390625 126.035156 153.066406 C 125.113281 154.410156 124.351562 154.625 122.847656 154.097656 C 122.785156 154.074219 122.722656 154.042969 122.660156 154.011719 C 119.757812 152.578125 116.851562 151.144531 113.953125 149.703125 C 113.777344 149.613281 113.644531 149.4375 113.425781 149.25 C 113.367188 147.542969 113.820312 145.882812 114.378906 144.265625 C 114.5625 143.722656 115.0625 143.226562 115.535156 142.855469 C 116.285156 142.253906 117.140625 141.792969 117.933594 141.238281 C 118.949219 140.53125 119.976562 139.832031 120.933594 139.046875 C 122.390625 137.84375 122.816406 136.25 122.515625 134.289062 C 121.394531 134.753906 121.246094 135.992188 120.300781 136.574219 C 120.042969 136.53125 119.695312 136.511719 119.378906 136.414062 C 117.390625 135.796875 115.429688 135.859375 113.5 136.609375 C 112.832031 136.871094 112.21875 137.011719 111.515625 136.710938 C 109.394531 135.800781 107.230469 135.78125 105.046875 136.496094 C 104.863281 136.554688 104.644531 136.523438 104.46875 136.53125 C 103.5 136.046875 103.375 134.769531 102.273438 134.304688 C 101.988281 136.152344 102.398438 137.6875 103.753906 138.851562 C 104.796875 139.746094 105.894531 140.59375 107.058594 141.320312 C 110.332031 143.359375 110.351562 143.328125 111.128906 147.0625 C 111.242188 147.601562 111.316406 148.148438 111.378906 148.695312 C 111.402344 148.890625 111.339844 149.097656 111.296875 149.441406 C 110.394531 149.941406 109.453125 150.511719 108.472656 150.992188 C 106.496094 151.964844 104.496094 152.894531 102.5 153.835938 C 102.1875 153.980469 101.863281 154.109375 101.535156 154.207031 C 100.582031 154.488281 99.78125 154.273438 99.113281 153.507812 C 98.480469 152.785156 97.941406 151.757812 97.472656 150.234375 C 97.660156 149.835938 98.027344 149.921875 98.363281 149.898438 C 99.582031 149.800781 100.835938 149.859375 102.324219 149.046875 C 101.542969 149.023438 101.125 149.011719 100.703125 149 C 100.21875 148.984375 99.734375 148.996094 99.253906 148.941406 C 97.300781 148.71875 95.949219 147.722656 95.210938 145.664062 C 95.640625 145.695312 95.96875 145.652344 96.246094 145.75 C 96.957031 145.992188 97.632812 146.355469 98.355469 146.570312 C 99.371094 146.867188 100.394531 146.84375 101.59375 146.246094 C 100.773438 146.136719 100.144531 146.128906 99.5625 145.957031 C 98.910156 145.765625 98.246094 145.511719 97.6875 145.136719 C 97.0625 144.71875 96.503906 144.179688 96.003906 143.617188 C 95.550781 143.105469 95.167969 142.515625 94.855469 141.90625 C 94.5625 141.34375 94.136719 140.742188 94.625 139.855469 C 95.953125 141.242188 97.417969 142.234375 99.179688 142.679688 C 99.894531 142.859375 100.578125 143.296875 101.554688 142.988281 C 101.132812 142.703125 100.835938 142.464844 100.507812 142.28125 C 99.726562 141.847656 98.921875 141.445312 98.136719 141.019531 C 96.773438 140.285156 96.007812 139.09375 95.628906 137.632812 C 95.226562 136.078125 95.136719 134.5 95.402344 132.914062 C 95.601562 131.703125 95.835938 130.496094 96.085938 129.121094 C 94.4375 129.554688 93.792969 130.980469 92.601562 131.921875 C 92.351562 131.621094 92.132812 131.386719 91.949219 131.132812 C 91.089844 129.964844 90.234375 128.796875 89.386719 127.625 C 88.863281 126.898438 88.320312 126.179688 87.835938 125.429688 C 86.875 123.953125 86.328125 122.339844 86.382812 120.585938 C 85.847656 120.398438 85.738281 120.757812 85.59375 121.046875 C 84.195312 123.886719 83.949219 126.84375 84.691406 129.902344 C 85.050781 131.375 85.542969 132.796875 86.207031 134.09375 C 86.671875 134.167969 86.761719 133.941406 86.832031 133.65625 C 87.015625 132.921875 87.191406 132.183594 87.421875 131.464844 C 87.496094 131.234375 87.734375 131.054688 88 130.730469 C 88.101562 131.152344 88.1875 131.40625 88.226562 131.664062 C 88.441406 133.191406 88.941406 134.613281 89.855469 135.863281 C 90.242188 136.394531 90.421875 136.945312 90.316406 137.597656 C 89.867188 140.429688 90.046875 143.238281 90.644531 146.027344 C 90.703125 146.292969 90.695312 146.570312 90.71875 146.90625 C 89.925781 147.71875 88.761719 147.835938 87.824219 148.371094 C 86.941406 148.878906 86.03125 149.328125 85.203125 149.761719 C 84.660156 149.492188 84.785156 149.105469 84.804688 148.796875 C 85.011719 145.710938 84.371094 142.761719 83.351562 139.878906 C 82.433594 137.28125 81.386719 134.726562 80.871094 132 C 80.300781 128.980469 80.210938 125.96875 80.914062 122.964844 C 81.910156 118.714844 84.21875 115.277344 87.480469 112.4375 C 87.992188 111.992188 88.519531 111.5625 89.265625 110.9375 C 88.679688 110.9375 88.363281 110.863281 88.097656 110.949219 C 83.460938 112.4375 79.496094 114.957031 76.332031 118.6875 C 74.585938 120.742188 73.027344 122.9375 71.679688 125.265625 C 68.777344 130.277344 65.898438 135.300781 63.066406 140.351562 C 61.394531 143.328125 60.246094 146.484375 60.136719 149.953125 C 60.070312 152.03125 60.234375 154.085938 60.628906 156.125 C 60.6875 156.433594 60.695312 156.75 60.757812 157.332031 C 60.34375 157.015625 60.078125 156.902344 59.949219 156.703125 C 57.121094 152.355469 55.585938 147.667969 56.175781 142.414062 C 56.375 140.652344 56.96875 139.042969 58.078125 137.679688 C 59.121094 136.398438 60.246094 135.179688 61.421875 134.019531 C 64.078125 131.402344 66.625 128.6875 68.785156 125.636719 C 69.242188 124.988281 69.828125 124.382812 69.996094 123.421875 C 69.308594 123.5 68.921875 123.90625 68.507812 124.199219 C 66.246094 125.800781 63.832031 127.113281 61.289062 128.210938 C 58.980469 129.214844 56.550781 129.65625 54.050781 129.746094 C 53.808594 129.757812 53.558594 129.652344 53.359375 129.609375 C 53.238281 129.085938 53.578125 129.066406 53.804688 128.976562 C 57.550781 127.511719 60.101562 124.855469 61.628906 121.167969 C 62.417969 119.265625 63.144531 117.34375 63.65625 115.398438 C 63.300781 114.953125 62.984375 115.207031 62.683594 115.3125 C 60.78125 115.996094 58.832031 116.390625 56.800781 116.246094 C 56.597656 116.230469 56.394531 116.195312 56.191406 116.15625 C 56.136719 116.144531 56.09375 116.078125 56.042969 116.035156 C 55.878906 115.699219 56.09375 115.53125 56.351562 115.417969 C 58.207031 114.625 59.503906 113.222656 60.554688 111.5625 C 61.667969 109.816406 62.804688 108.085938 63.847656 106.304688 C 64.667969 104.902344 65.851562 104.121094 67.375 103.65625 C 70.308594 102.757812 73.21875 102.816406 76.128906 103.679688 C 76.503906 103.792969 76.851562 104 77.488281 104.289062 C 76.398438 104.800781 75.542969 105.152344 74.738281 105.59375 C 73.953125 106.023438 73.191406 106.503906 72.472656 107.035156 C 71.703125 107.613281 70.960938 108.238281 70.277344 108.914062 C 69.652344 109.527344 69.003906 110.15625 68.605469 111.121094 C 69.402344 111.457031 70.007812 111.042969 70.632812 110.933594 C 71.3125 110.816406 71.992188 110.6875 72.675781 110.613281 C 73.339844 110.542969 74.011719 110.535156 74.628906 110.503906 C 74.890625 111.113281 74.503906 111.242188 74.242188 111.421875 C 71.066406 113.617188 69.054688 116.703125 67.570312 120.179688 C 67.527344 120.277344 67.621094 120.429688 67.675781 120.65625 C 68.089844 120.390625 68.5 120.175781 68.863281 119.894531 C 70.820312 118.371094 72.820312 116.894531 74.710938 115.285156 C 78.371094 112.171875 82.425781 109.742188 86.855469 107.90625 C 88.191406 107.355469 89.484375 106.691406 90.765625 106.023438 C 92.074219 105.335938 93.136719 104.371094 93.792969 103.007812 C 94.253906 102.050781 95.007812 101.347656 95.832031 100.707031 C 97.503906 99.410156 99.246094 99.386719 101.03125 100.441406 C 102.367188 101.230469 103.382812 102.34375 104.183594 103.660156 C 104.5 104.179688 104.808594 104.703125 105.152344 105.277344 C 106.109375 104.492188 105.558594 103.074219 106.65625 102.355469 C 109.382812 105.164062 110.832031 108.644531 112.230469 112.492188 C 113.1875 110.503906 113.949219 108.785156 114.835938 107.128906 C 115.714844 105.496094 116.738281 103.945312 118.164062 102.46875 C 118.402344 102.847656 118.609375 103.089844 118.710938 103.367188 C 118.941406 104 119.121094 104.648438 119.394531 105.535156 C 119.820312 104.910156 120.144531 104.492188 120.414062 104.039062 C 121.167969 102.785156 122.109375 101.691406 123.289062 100.820312 C 125.4375 99.230469 127.511719 99.304688 129.476562 101.089844 C 130.082031 101.640625 130.675781 102.269531 131.050781 102.984375 C 131.824219 104.46875 133.035156 105.449219 134.433594 106.226562 C 135.515625 106.828125 136.640625 107.363281 137.785156 107.84375 C 142.335938 109.742188 146.539062 112.203125 150.308594 115.402344 C 151.9375 116.785156 153.644531 118.078125 155.324219 119.394531 C 155.863281 119.816406 156.433594 120.199219 157.039062 120.632812 C 157.058594 118.261719 154.027344 114.152344 149.8125 110.820312 C 150.089844 110.695312 150.308594 110.503906 150.5 110.527344 C 151.867188 110.6875 153.230469 110.882812 154.585938 111.09375 C 155.121094 111.175781 155.644531 111.339844 156.246094 111.480469 C 155.347656 109.015625 152.742188 106.890625 147.609375 104.359375 C 147.859375 104.179688 148.046875 103.964844 148.285156 103.882812 C 151.511719 102.800781 154.75 102.613281 158.023438 103.734375 C 159.316406 104.175781 160.34375 104.871094 161.015625 106.105469 C 161.671875 107.316406 162.398438 108.492188 163.140625 109.652344 C 163.808594 110.699219 164.515625 111.71875 165.246094 112.722656 C 166.070312 113.851562 167.09375 114.765625 168.382812 115.351562 C 168.625 115.460938 168.839844 115.617188 169.269531 115.875 C 168.863281 116.046875 168.652344 116.207031 168.429688 116.222656 C 166.480469 116.363281 164.574219 116.136719 162.71875 115.511719 C 162.289062 115.367188 161.847656 115.253906 161.316406 115.101562 C 161.316406 115.464844 161.269531 115.671875 161.324219 115.847656 C 162 118.09375 162.757812 120.304688 163.789062 122.421875 C 165.144531 125.207031 167.273438 127.175781 170.027344 128.515625 C 170.558594 128.773438 171.09375 129.019531 171.636719 129.273438 C 171.316406 129.84375 170.867188 129.722656 170.480469 129.710938 C 167.976562 129.625 165.554688 129.136719 163.253906 128.125 C 161.039062 127.148438 158.910156 126.019531 156.933594 124.617188 C 156.339844 124.195312 155.714844 123.8125 154.839844 123.238281 C 155.0625 124.300781 155.5 124.910156 155.957031 125.46875 C 157.617188 127.492188 159.296875 129.503906 161.019531 131.476562 C 161.835938 132.410156 162.769531 133.234375 163.648438 134.113281 C 164.136719 134.597656 164.609375 135.101562 165.109375 135.578125 C 168.535156 138.816406 169.398438 142.828125 168.660156 147.324219 C 168.121094 150.632812 166.980469 153.71875 165.125 156.519531 C 164.949219 156.785156 164.824219 157.15625 164.328125 157.117188 C 164.007812 156.597656 164.320312 156.082031 164.410156 155.589844 C 164.957031 152.566406 164.980469 149.554688 164.316406 146.554688 C 163.851562 144.449219 162.984375 142.496094 161.933594 140.625 C 159.269531 135.875 156.617188 131.117188 153.898438 126.398438 C 151.824219 122.804688 149.4375 119.417969 146.394531 116.5625 C 143.53125 113.875 140.15625 112.046875 136.417969 110.882812 C 136.300781 110.84375 136.152344 110.910156 135.84375 110.953125 C 136.144531 111.289062 136.347656 111.59375 136.621094 111.8125 C 138.03125 112.933594 139.304688 114.183594 140.40625 115.617188 C 143.589844 119.761719 144.78125 124.453125 144.25 129.609375 C 143.957031 132.441406 143.234375 135.167969 142.160156 137.796875 C 141.195312 140.171875 140.433594 142.601562 140.160156 145.15625 C 140.039062 146.316406 140.042969 147.488281 139.996094 148.65625 C 139.984375 148.984375 139.992188 149.3125 139.992188 149.777344 C 138.832031 149.5625 138.085938 148.777344 137.152344 148.40625 C 136.195312 148.023438 135.257812 147.574219 134.199219 147.105469 C 134.199219 146.628906 134.105469 146.078125 134.214844 145.566406 C 134.71875 143.113281 134.890625 140.652344 134.5 138.167969 C 134.351562 137.242188 134.429688 136.433594 135.035156 135.644531 C 136.070312 134.292969 136.304688 132.621094 136.707031 130.796875 C 137 131.191406 137.261719 131.410156 137.351562 131.683594 C 137.640625 132.578125 137.875 133.488281 138.132812 134.398438 Z M 134.570312 116.082031 C 133.4375 115.480469 132.472656 115.507812 131.503906 115.507812 C 130.585938 115.507812 129.632812 115.894531 128.566406 115.390625 C 129.238281 114.035156 130.136719 112.839844 129.789062 111.292969 C 129.582031 111.375 129.386719 111.390625 129.347656 111.480469 C 128.480469 113.359375 126.96875 114.660156 125.441406 115.960938 C 124.445312 116.8125 123.359375 117.605469 122.558594 118.617188 C 121.570312 119.867188 120.441406 120.035156 119.074219 119.632812 C 118.484375 119.457031 117.917969 119.203125 117.335938 119 C 117.050781 118.902344 116.753906 118.847656 116.257812 118.722656 C 117.386719 120.410156 119.132812 120.980469 120.363281 122.175781 C 120.363281 123.382812 120.285156 124.558594 120.382812 125.722656 C 120.492188 127.023438 120.746094 128.308594 120.984375 129.59375 C 121.046875 129.914062 121.300781 130.203125 121.558594 130.675781 C 122.011719 128.636719 121.757812 126.703125 122.707031 125.027344 C 124.273438 124.195312 125.96875 123.804688 127.644531 123.453125 C 129.296875 123.105469 130.355469 122.226562 131.039062 120.757812 C 131.152344 120.507812 131.296875 120.269531 131.410156 120.019531 C 131.996094 118.746094 132.765625 117.625 133.9375 116.804688 C 134.140625 116.664062 134.277344 116.421875 134.570312 116.082031 Z M 108.292969 118.839844 C 106.621094 119.320312 105.074219 120.171875 103.550781 119.796875 C 102.15625 118.484375 101 117.304688 99.746094 116.234375 C 98.023438 114.769531 96.28125 113.347656 95.339844 111.109375 C 94.863281 111.542969 95 111.957031 95.058594 112.339844 C 95.105469 112.679688 95.167969 113.023438 95.289062 113.34375 C 95.429688 113.730469 95.632812 114.09375 95.8125 114.464844 C 95.984375 114.8125 96.160156 115.15625 96.386719 115.605469 C 95.261719 115.84375 94.308594 115.679688 93.363281 115.660156 C 91.457031 115.621094 91.457031 115.601562 90.558594 116.230469 C 90.621094 116.347656 90.652344 116.511719 90.753906 116.574219 C 92.179688 117.539062 93.078125 118.902344 93.742188 120.453125 C 93.878906 120.765625 94.050781 121.066406 94.207031 121.375 C 94.699219 122.355469 95.449219 122.964844 96.542969 123.234375 C 98.011719 123.597656 99.449219 124.105469 100.917969 124.476562 C 102.011719 124.753906 102.53125 125.414062 102.640625 126.503906 C 102.773438 127.871094 102.949219 129.230469 103.128906 130.796875 C 103.378906 130.457031 103.585938 130.277344 103.664062 130.050781 C 104.578125 127.472656 104.652344 124.792969 104.53125 122.03125 C 105.234375 121.566406 105.929688 121.136719 106.597656 120.664062 C 107.265625 120.1875 107.929688 119.695312 108.292969 118.839844 Z M 108.292969 118.839844 " fill-opacity="1" fill-rule="nonzero"/></g><g clip-path="url(#bfc195cf05)"><path fill="#000000" d="M 120.417969 89.394531 C 120.335938 87.371094 120.902344 85.671875 121.421875 83.972656 C 121.925781 82.3125 122.691406 80.753906 123.785156 79.402344 C 124.898438 78.019531 126.132812 76.726562 127.421875 75.273438 C 126.15625 75.347656 125.226562 75.964844 124.257812 76.417969 C 123.261719 76.886719 122.28125 77.414062 121.359375 78.007812 C 120.429688 78.601562 119.535156 79.257812 118.707031 79.984375 C 117.882812 80.707031 117.105469 81.5 116.40625 82.347656 C 115.714844 83.183594 115.15625 84.125 114.464844 85.128906 C 113.765625 84.125 113.777344 83.054688 113.421875 82.117188 C 113.09375 81.246094 112.976562 80.285156 112.273438 79.257812 C 111.898438 80.421875 111.613281 81.335938 111.3125 82.242188 C 111.011719 83.140625 110.957031 84.128906 110.347656 85.0625 C 109.484375 83.882812 108.769531 82.710938 107.867188 81.707031 C 106.949219 80.691406 105.90625 79.757812 104.8125 78.9375 C 103.710938 78.117188 102.503906 77.425781 101.292969 76.773438 C 100.085938 76.125 98.8125 75.59375 97.527344 74.996094 C 97.234375 75.6875 97.828125 75.777344 98.066406 75.976562 C 101.742188 79.078125 103.582031 83.128906 104.257812 87.792969 C 104.324219 88.25 104.265625 88.730469 104.265625 89.339844 C 102.664062 88.765625 101.527344 87.605469 100.109375 86.953125 C 98.671875 86.289062 97.25 85.574219 95.777344 84.996094 C 94.371094 84.441406 92.921875 83.976562 91.460938 83.578125 C 89.933594 83.164062 88.371094 82.875 86.820312 82.542969 C 85.28125 82.214844 83.734375 82.1875 82.101562 82.289062 C 82.359375 82.820312 82.769531 82.6875 83.066406 82.800781 C 83.390625 82.921875 83.730469 82.988281 84.066406 83.074219 C 85.546875 83.441406 86.992188 83.933594 88.261719 84.773438 C 89.058594 85.296875 89.828125 85.9375 90.414062 86.679688 C 91.0625 87.5 91.8125 87.875 92.808594 88.09375 C 96.464844 88.902344 99.632812 90.652344 102.273438 93.316406 C 103.042969 94.09375 103.710938 94.949219 104.242188 95.863281 C 103.855469 96.3125 103.644531 95.992188 103.476562 95.855469 C 96.460938 90.066406 88.527344 89.3125 80.074219 91.648438 C 75.78125 92.835938 71.84375 94.808594 68.242188 97.4375 C 67.988281 97.621094 67.691406 97.746094 67.3125 97.953125 C 67.582031 96.679688 68.078125 95.730469 69.449219 94.195312 C 70.410156 93.117188 71.410156 92.050781 72.519531 91.132812 C 73.578125 90.261719 74.75 89.503906 75.960938 88.855469 C 77.203125 88.1875 78.546875 87.714844 80.054688 87.066406 C 77.046875 84.59375 73.726562 83.449219 70.085938 82.882812 C 71.230469 81.628906 73.996094 80.511719 78.4375 79.535156 C 81.335938 78.898438 84.273438 78.492188 87.261719 78.601562 C 90.304688 78.710938 93.210938 79.535156 96.171875 80.347656 C 95.992188 78.703125 95.574219 77.785156 94.371094 76.191406 C 93.488281 75.027344 92.460938 73.996094 91.246094 73.203125 C 89.988281 72.378906 88.664062 71.667969 87.347656 70.894531 C 87.398438 70.421875 87.828125 70.492188 88.109375 70.46875 C 89.070312 70.390625 90.039062 70.320312 91.003906 70.339844 C 94.257812 70.402344 97.46875 70.84375 100.609375 71.695312 C 103.355469 72.441406 105.929688 73.585938 108.222656 75.527344 C 108.5 75.160156 108.777344 74.878906 108.957031 74.542969 C 109.871094 72.84375 110.761719 71.128906 111.667969 69.425781 C 111.855469 69.074219 112.09375 68.753906 112.421875 68.242188 C 113.980469 70.621094 114.871094 73.183594 116.421875 75.441406 C 118.066406 74.542969 119.613281 73.527344 121.289062 72.828125 C 122.992188 72.113281 124.808594 71.609375 126.617188 71.203125 C 128.359375 70.816406 130.152344 70.617188 131.9375 70.441406 C 133.769531 70.261719 135.613281 70.183594 137.828125 70.746094 C 136.683594 71.332031 135.882812 71.695312 135.128906 72.144531 C 134.363281 72.605469 133.621094 73.113281 132.921875 73.671875 C 132.277344 74.1875 131.664062 74.757812 131.125 75.382812 C 130.542969 76.058594 129.996094 76.785156 129.554688 77.554688 C 129.121094 78.324219 128.832031 79.175781 128.496094 79.960938 C 129.0625 80.441406 129.507812 80.128906 129.945312 79.992188 C 132.933594 79.070312 135.96875 78.476562 139.109375 78.59375 C 144.117188 78.789062 148.957031 79.761719 153.539062 81.855469 C 153.949219 82.042969 154.316406 82.328125 154.847656 82.660156 C 154.183594 83.179688 153.542969 83.058594 152.980469 83.191406 C 152.441406 83.320312 151.902344 83.429688 151.375 83.59375 C 150.785156 83.78125 150.203125 84.003906 149.628906 84.238281 C 149.054688 84.476562 148.488281 84.726562 147.9375 85.007812 C 147.445312 85.253906 146.960938 85.523438 146.5 85.824219 C 145.988281 86.160156 145.511719 86.542969 145.019531 86.90625 C 145.328125 87.609375 145.9375 87.5625 146.421875 87.734375 C 151.398438 89.511719 155.011719 92.84375 157.550781 97.417969 C 157.597656 97.5 157.503906 97.660156 157.445312 97.914062 C 157.023438 97.65625 156.625 97.441406 156.253906 97.183594 C 151.546875 93.902344 146.394531 91.628906 140.722656 90.730469 C 135.109375 89.847656 129.714844 90.699219 124.703125 93.445312 C 123.328125 94.199219 122.101562 95.230469 120.796875 96.144531 C 120.351562 95.851562 120.683594 95.566406 120.847656 95.332031 C 122.542969 92.890625 124.828125 91.140625 127.429688 89.785156 C 129.019531 88.949219 130.683594 88.289062 132.476562 87.992188 C 133.167969 87.878906 133.765625 87.671875 134.214844 87.03125 C 135.5 85.207031 137.355469 84.167969 139.429688 83.488281 C 140.535156 83.128906 141.664062 82.847656 142.875 82.503906 C 142.535156 82.140625 142.125 82.28125 141.78125 82.257812 C 141.304688 82.226562 140.816406 82.25 140.335938 82.269531 C 139.921875 82.285156 139.503906 82.300781 139.097656 82.363281 C 132.882812 83.289062 127.03125 85.207031 121.761719 88.714844 C 121.390625 88.964844 120.957031 89.128906 120.417969 89.394531 Z M 120.417969 89.394531 " fill-opacity="1" fill-rule="nonzero"/></g><g clip-path="url(#55c79d1aa9)"><path fill="#000000" d="M 107.582031 170.769531 C 107.828125 169.984375 108.0625 169.234375 108.304688 168.460938 C 109.40625 169.140625 109.417969 169.136719 110.648438 171.277344 C 111.226562 172.285156 111.757812 173.316406 112.378906 174.464844 C 113.742188 172.378906 114.539062 170.039062 116.527344 168.308594 C 116.816406 169.210938 117.050781 169.960938 117.328125 170.84375 C 117.597656 170.578125 117.800781 170.410156 117.964844 170.214844 C 119.476562 168.425781 120.925781 166.574219 122.511719 164.855469 C 123.359375 163.941406 123.902344 162.945312 123.976562 161.753906 C 124.0625 160.382812 124.007812 159 123.992188 157.625 C 123.988281 157.226562 123.914062 156.828125 123.863281 156.332031 C 126.035156 155.304688 128.058594 155.917969 130.113281 156.703125 C 130.367188 155.910156 129.917969 155.367188 129.878906 154.78125 C 129.84375 154.238281 129.667969 153.667969 129.777344 153.15625 C 130.136719 151.476562 131.007812 149.980469 131.46875 148.097656 C 131.832031 148.441406 132.007812 148.535156 132.066406 148.675781 C 134.722656 154.953125 135.914062 161.453125 135.101562 168.269531 C 134.375 174.378906 131.726562 179.597656 127.601562 184.070312 C 126.0625 185.738281 124.324219 187.226562 122.585938 188.695312 C 119.714844 191.121094 117.238281 193.878906 115.320312 197.113281 C 114.480469 198.53125 113.773438 200.03125 113.003906 201.492188 C 112.851562 201.773438 112.671875 202.035156 112.433594 202.429688 C 112.191406 202.050781 112.015625 201.84375 111.910156 201.601562 C 109.660156 196.453125 106.394531 192.082031 102.03125 188.523438 C 99.785156 186.6875 97.671875 184.710938 95.867188 182.417969 C 91.371094 176.699219 89.421875 170.195312 89.648438 162.945312 C 89.796875 158.191406 90.945312 153.683594 92.554688 149.257812 C 92.664062 148.949219 92.894531 148.683594 93.082031 148.410156 C 93.109375 148.367188 93.210938 148.367188 93.335938 148.332031 C 93.886719 149.722656 94.445312 151.117188 95 152.515625 C 95.292969 153.25 95.257812 153.996094 95.042969 154.746094 C 94.890625 155.265625 94.757812 155.789062 94.574219 156.464844 C 95.394531 156.570312 95.980469 156.128906 96.625 156.035156 C 97.375 155.929688 98.128906 155.824219 98.886719 155.824219 C 99.558594 155.820312 100.269531 155.816406 100.945312 156.390625 C 100.910156 156.929688 100.824219 157.539062 100.835938 158.144531 C 100.863281 159.519531 100.902344 160.898438 101.011719 162.265625 C 101.078125 163.109375 101.503906 163.8125 102.066406 164.460938 C 103.773438 166.445312 105.441406 168.460938 107.136719 170.460938 C 107.214844 170.558594 107.347656 170.613281 107.582031 170.769531 Z M 126.40625 159.679688 C 126.25 159.957031 126.195312 160.007812 126.195312 160.066406 C 126.191406 160.683594 126.183594 161.300781 126.199219 161.917969 C 126.320312 166.074219 124.996094 169.632812 121.863281 172.441406 C 120.425781 173.726562 118.964844 174.988281 117.5 176.238281 C 115.726562 177.753906 114.46875 179.617188 113.703125 181.808594 C 113.386719 182.714844 113.1875 183.664062 112.898438 184.582031 C 112.8125 184.851562 112.589844 185.078125 112.410156 185.351562 C 112.265625 185.199219 112.191406 185.15625 112.171875 185.097656 C 112.03125 184.636719 111.875 184.179688 111.765625 183.714844 C 111.019531 180.589844 109.382812 178.023438 106.925781 175.964844 C 105.816406 175.035156 104.746094 174.0625 103.640625 173.128906 C 99.742188 169.847656 98.199219 165.640625 98.6875 160.621094 C 98.71875 160.308594 98.882812 159.941406 98.308594 159.609375 C 97.40625 160.445312 96.601562 161.4375 95.734375 162.390625 C 94.617188 163.613281 94.367188 164.964844 94.539062 166.578125 C 95 170.882812 96.738281 174.65625 99.132812 178.175781 C 99.972656 179.414062 100.800781 180.6875 102.167969 181.828125 C 102.0625 180.320312 100.953125 179.308594 101.066406 177.753906 C 101.457031 178.0625 101.75 178.210938 101.933594 178.449219 C 102.992188 179.804688 103.996094 181.207031 105.078125 182.546875 C 106.339844 184.105469 107.421875 185.773438 108.386719 187.53125 C 109.652344 189.832031 110.753906 192.191406 111.542969 194.703125 C 111.675781 195.113281 111.597656 195.707031 112.324219 195.878906 C 112.777344 195.226562 113.074219 194.464844 113.414062 193.730469 C 113.726562 193.039062 114.042969 192.351562 114.367188 191.667969 C 114.722656 190.921875 115.085938 190.179688 115.460938 189.441406 C 115.804688 188.765625 116.15625 188.09375 116.535156 187.4375 C 116.949219 186.722656 117.378906 186.015625 117.832031 185.324219 C 118.246094 184.691406 118.6875 184.070312 119.144531 183.46875 C 119.640625 182.808594 120.175781 182.175781 120.691406 181.53125 C 121.167969 180.9375 121.636719 180.34375 122.109375 179.753906 C 122.605469 179.132812 122.949219 178.378906 123.75 177.789062 C 124.046875 178.703125 123.613281 179.265625 123.398438 179.871094 C 123.175781 180.492188 122.660156 181.023438 122.785156 181.816406 C 123 181.667969 123.195312 181.582031 123.324219 181.4375 C 126.03125 178.347656 128.191406 174.925781 129.492188 171.015625 C 130.121094 169.117188 130.46875 167.136719 130.378906 165.121094 C 130.355469 164.660156 130.277344 164.132812 130.035156 163.761719 C 129.058594 162.265625 127.949219 160.875 126.40625 159.679688 Z M 126.40625 159.679688 " fill-opacity="1" fill-rule="nonzero"/></g><path fill="#000000" d="M 75.015625 167.992188 C 73.910156 167.816406 73.40625 167.242188 72.878906 166.761719 C 69.910156 164.058594 67.8125 160.785156 66.640625 156.945312 C 66.296875 155.828125 66.039062 154.675781 65.867188 153.523438 C 65.582031 151.59375 65.628906 149.652344 66.433594 147.835938 C 67.351562 145.761719 68.246094 143.660156 69.378906 141.703125 C 70.683594 139.4375 72.222656 137.3125 73.6875 135.144531 C 73.945312 134.761719 74.316406 134.457031 74.675781 134.070312 C 75.511719 135.917969 76.300781 137.652344 77.140625 139.5 C 76.957031 139.832031 76.730469 140.246094 76.496094 140.664062 C 74.476562 144.296875 72.921875 148.109375 72.195312 152.222656 C 71.636719 155.371094 71.621094 158.539062 72.089844 161.691406 C 72.355469 163.480469 73.0625 165.128906 74.105469 166.625 C 74.363281 166.992188 74.605469 167.371094 75.015625 167.992188 Z M 75.015625 167.992188 " fill-opacity="1" fill-rule="nonzero"/><path fill="#000000" d="M 121.226562 161.59375 C 120.890625 161.375 120.621094 161.203125 120.285156 160.988281 C 119.082031 161.925781 117.855469 162.878906 116.519531 163.917969 C 116.285156 163.378906 116.109375 162.96875 115.875 162.4375 C 115.0625 162.804688 114.644531 163.53125 114.113281 164.109375 C 113.566406 164.707031 113.058594 165.351562 112.464844 166.058594 C 111.136719 165.023438 110.464844 163.503906 109.082031 162.539062 C 108.898438 162.980469 108.753906 163.324219 108.554688 163.800781 C 107.039062 163.144531 105.957031 161.90625 104.714844 160.917969 C 104.386719 161.140625 104.121094 161.316406 103.78125 161.542969 C 103.058594 160.773438 103.007812 159.796875 102.917969 158.871094 C 102.84375 158.132812 102.820312 157.355469 102.96875 156.632812 C 103.050781 156.230469 103.445312 155.746094 103.828125 155.570312 C 106.328125 154.417969 108.886719 153.386719 111.65625 153.074219 C 112.328125 152.996094 113.039062 153.035156 113.707031 153.152344 C 116.167969 153.566406 118.484375 154.4375 120.746094 155.464844 C 121.351562 155.742188 121.820312 156.140625 121.933594 156.792969 C 122.222656 158.441406 122.191406 160.058594 121.226562 161.59375 Z M 121.226562 161.59375 " fill-opacity="1" fill-rule="nonzero"/><path fill="#000000" d="M 149.886719 168.007812 C 150.050781 167.75 150.1875 167.472656 150.378906 167.234375 C 151.816406 165.464844 152.480469 163.410156 152.796875 161.175781 C 153.664062 155.105469 152.480469 149.378906 149.992188 143.863281 C 149.3125 142.363281 148.519531 140.914062 147.796875 139.472656 C 148.601562 137.722656 149.398438 135.996094 150.1875 134.277344 C 150.660156 134.171875 150.808594 134.542969 150.992188 134.796875 C 153.304688 137.976562 155.363281 141.308594 157.1875 144.808594 C 159.371094 149 159.527344 153.25 158.074219 157.625 C 156.710938 161.710938 154.371094 165.148438 150.890625 167.757812 C 150.644531 167.941406 150.351562 168.0625 150.082031 168.214844 C 150.015625 168.140625 149.949219 168.074219 149.886719 168.007812 Z M 149.886719 168.007812 " fill-opacity="1" fill-rule="nonzero"/><path fill="#000000" d="M 79.75 149.746094 C 80.144531 154.164062 80.863281 156.234375 82.644531 158.039062 C 83.445312 157.214844 83.660156 155.90625 84.769531 155.347656 C 85.285156 155.625 84.949219 155.957031 84.863281 156.21875 C 82.964844 161.898438 83.074219 167.597656 84.671875 173.3125 C 85.484375 176.210938 86.886719 178.792969 88.898438 181.046875 C 89.101562 181.277344 89.265625 181.542969 89.460938 181.808594 C 88.933594 182.097656 88.707031 181.765625 88.457031 181.578125 C 85.742188 179.570312 83.757812 176.953125 82.132812 174.027344 C 79.613281 169.488281 78.253906 164.617188 77.886719 159.460938 C 77.671875 156.464844 78.144531 153.554688 79.0625 150.707031 C 79.144531 150.449219 79.289062 150.207031 79.414062 149.964844 C 79.433594 149.917969 79.511719 149.894531 79.75 149.746094 Z M 79.75 149.746094 " fill-opacity="1" fill-rule="nonzero"/><path fill="#000000" d="M 139.871094 155.324219 C 141.289062 155.894531 141.492188 157.25 142.265625 158.207031 C 143.207031 157.644531 143.546875 156.726562 143.882812 155.847656 C 144.25 154.886719 144.566406 153.894531 144.765625 152.886719 C 144.949219 151.972656 144.945312 151.015625 145.03125 149.945312 C 145.734375 150.222656 145.800781 150.816406 145.933594 151.296875 C 146.71875 154.101562 147.074219 156.957031 146.855469 159.871094 C 146.476562 164.945312 145.21875 169.765625 142.710938 174.226562 C 141.105469 177.074219 139.113281 179.597656 136.472656 181.5625 C 136.226562 181.746094 135.929688 181.855469 135.375 182.148438 C 135.585938 181.675781 135.621094 181.484375 135.730469 181.363281 C 139.105469 177.722656 140.632812 173.292969 141.167969 168.46875 C 141.625 164.324219 141.441406 160.226562 139.976562 156.257812 C 139.890625 156.019531 139.917969 155.742188 139.871094 155.324219 Z M 139.871094 155.324219 " fill-opacity="1" fill-rule="nonzero"/><path fill="#000000" d="M 109.242188 88.84375 C 110.542969 90.484375 111.171875 92.25 112.265625 93.882812 C 113.507812 92.234375 113.949219 90.289062 115.335938 88.910156 C 117.59375 92.289062 115.941406 99.917969 112.445312 102.589844 C 109.15625 100.496094 107.417969 93.484375 109.242188 88.84375 Z M 109.242188 88.84375 " fill-opacity="1" fill-rule="nonzero"/><path fill="#000000" d="M 85.125 105.082031 C 84.308594 103.480469 83.574219 102.003906 82.8125 100.546875 C 81.917969 98.847656 82.425781 97.339844 83.457031 95.933594 C 83.996094 95.199219 84.621094 95.117188 85.457031 95.550781 C 85.761719 95.707031 86.0625 95.882812 86.339844 96.082031 C 87.949219 97.238281 89.550781 98.40625 91.171875 99.582031 C 90.925781 100.644531 90.230469 101.042969 89.390625 101.191406 C 89.09375 101.246094 88.707031 101.105469 88.4375 100.933594 C 87.890625 100.589844 87.445312 100.0625 86.496094 99.84375 C 86.851562 100.480469 87.085938 100.878906 87.296875 101.285156 C 87.800781 102.257812 87.628906 103.140625 86.941406 103.960938 C 86.492188 104.492188 85.996094 104.949219 85.125 105.082031 Z M 85.125 105.082031 " fill-opacity="1" fill-rule="nonzero"/><path fill="#000000" d="M 139.640625 105.046875 C 138.496094 104.96875 137.898438 104.214844 137.460938 103.339844 C 137.097656 102.617188 137.28125 101.875 137.609375 101.152344 C 137.796875 100.738281 138.316406 100.464844 138.148438 99.75 C 137.660156 100.035156 137.203125 100.269531 136.785156 100.5625 C 135.519531 101.441406 135.054688 101.414062 133.96875 100.296875 C 133.839844 100.164062 133.800781 99.941406 133.664062 99.640625 C 133.910156 99.429688 134.144531 99.203125 134.40625 99.011719 C 135.410156 98.28125 136.417969 97.5625 137.429688 96.847656 C 137.933594 96.488281 138.429688 96.113281 138.960938 95.796875 C 140.363281 94.96875 141.195312 95.230469 141.929688 96.714844 C 142.570312 98.023438 142.675781 99.335938 141.945312 100.671875 C 141.160156 102.109375 140.414062 103.574219 139.640625 105.046875 Z M 139.640625 105.046875 " fill-opacity="1" fill-rule="nonzero"/><path fill="#000000" d="M 128.757812 117.542969 C 128.871094 117.46875 128.976562 117.351562 129.097656 117.324219 C 130.050781 117.109375 130.503906 117.480469 130.308594 118.324219 C 129.933594 119.96875 129.003906 121.199219 127.46875 121.929688 C 126.242188 122.511719 124.941406 122.558594 123.621094 122.371094 C 123.25 122.316406 122.984375 122.117188 123.003906 121.691406 C 123.027344 121.242188 123.359375 120.796875 123.707031 120.800781 C 124.046875 120.800781 124.386719 120.878906 124.726562 120.90625 C 126.964844 121.097656 128.179688 120.160156 128.617188 117.914062 C 128.640625 117.789062 128.710938 117.667969 128.757812 117.542969 Z M 128.757812 117.542969 " fill-opacity="1" fill-rule="nonzero"/><path fill="#000000" d="M 126.695312 118.9375 C 126.675781 119.53125 126.089844 120 125.433594 119.953125 C 124.929688 119.921875 124.535156 119.503906 124.554688 119.039062 C 124.578125 118.507812 125.0625 118.015625 125.59375 117.984375 C 126.109375 117.953125 126.710938 118.476562 126.695312 118.9375 Z M 126.695312 118.9375 " fill-opacity="1" fill-rule="nonzero"/><path fill="#000000" d="M 94.464844 117.375 C 95.085938 117.375 95.535156 117.375 96.074219 117.375 C 96.121094 117.71875 96.171875 117.972656 96.1875 118.230469 C 96.296875 119.902344 97.863281 120.917969 99.539062 120.96875 C 99.878906 120.980469 100.21875 120.820312 100.558594 120.824219 C 100.878906 120.828125 101.328125 120.835938 101.484375 121.03125 C 101.699219 121.296875 101.6875 121.746094 101.769531 122.109375 C 97.722656 123.128906 95.011719 121.410156 94.464844 117.375 Z M 94.464844 117.375 " fill-opacity="1" fill-rule="nonzero"/><path fill="#000000" d="M 99.109375 117.960938 C 99.628906 117.972656 100.167969 118.476562 100.195312 118.972656 C 100.21875 119.5 99.679688 119.996094 99.132812 119.945312 C 98.578125 119.894531 98.054688 119.421875 98.027344 118.945312 C 97.996094 118.476562 98.582031 117.945312 99.109375 117.960938 Z M 99.109375 117.960938 " fill-opacity="1" fill-rule="nonzero"/><g fill="#000000" fill-opacity="1"><g transform="translate(34.965561, 119.807917)"><g><path d="M 3.984375 -12.34375 C 3.890625 -12.050781 3.722656 -11.878906 3.484375 -11.828125 L -13.265625 -9.859375 L -13.296875 -9.78125 L -1.78125 -6.28125 C -1.25 -6.144531 -0.832031 -6.0625 -0.53125 -6.03125 C -0.226562 -6.007812 0.0546875 -6.09375 0.328125 -6.28125 C 0.609375 -6.476562 0.832031 -6.859375 1 -7.421875 L 1.0625 -7.59375 C 1.125 -7.789062 1.203125 -7.921875 1.296875 -7.984375 C 1.398438 -8.054688 1.585938 -8.0625 1.859375 -8 C 2.035156 -7.945312 2.171875 -7.851562 2.265625 -7.71875 C 2.367188 -7.59375 2.394531 -7.441406 2.34375 -7.265625 L 2.09375 -6.546875 C 1.769531 -5.671875 1.550781 -5.039062 1.4375 -4.65625 C 1.226562 -4 0.960938 -3.035156 0.640625 -1.765625 C 0.585938 -1.585938 0.484375 -1.472656 0.328125 -1.421875 C 0.179688 -1.378906 0.0195312 -1.382812 -0.15625 -1.4375 C -0.4375 -1.539062 -0.59375 -1.648438 -0.625 -1.765625 C -0.65625 -1.890625 -0.632812 -2.085938 -0.5625 -2.359375 C -0.382812 -2.921875 -0.351562 -3.359375 -0.46875 -3.671875 C -0.59375 -3.992188 -0.785156 -4.226562 -1.046875 -4.375 C -1.304688 -4.53125 -1.695312 -4.695312 -2.21875 -4.875 L -13.6875 -8.46875 C -14.28125 -8.65625 -14.742188 -8.726562 -15.078125 -8.6875 C -15.421875 -8.644531 -15.695312 -8.507812 -15.90625 -8.28125 C -16.113281 -8.0625 -16.347656 -7.71875 -16.609375 -7.25 C -16.648438 -7.175781 -16.707031 -7.066406 -16.78125 -6.921875 C -16.851562 -6.773438 -16.941406 -6.6875 -17.046875 -6.65625 C -17.148438 -6.632812 -17.296875 -6.648438 -17.484375 -6.703125 C -17.722656 -6.785156 -17.859375 -6.898438 -17.890625 -7.046875 C -17.921875 -7.203125 -17.898438 -7.414062 -17.828125 -7.6875 C -17.472656 -8.820312 -17.109375 -9.734375 -16.734375 -10.421875 C -16.359375 -11.109375 -15.863281 -11.660156 -15.25 -12.078125 C -14.644531 -12.492188 -13.851562 -12.753906 -12.875 -12.859375 L -0.171875 -14.375 L -0.140625 -14.46875 L -12.453125 -24.515625 L -11.953125 -26.171875 C -11.628906 -27.222656 -11.296875 -28.375 -10.953125 -29.625 C -10.898438 -29.800781 -10.800781 -29.910156 -10.65625 -29.953125 C -10.507812 -30.003906 -10.347656 -30.003906 -10.171875 -29.953125 C -9.890625 -29.835938 -9.734375 -29.71875 -9.703125 -29.59375 C -9.671875 -29.476562 -9.695312 -29.296875 -9.78125 -29.046875 C -9.945312 -28.492188 -9.972656 -28.046875 -9.859375 -27.703125 C -9.742188 -27.367188 -9.546875 -27.125 -9.265625 -26.96875 C -8.984375 -26.8125 -8.609375 -26.648438 -8.140625 -26.484375 L 3.359375 -22.9375 C 3.859375 -22.800781 4.265625 -22.71875 4.578125 -22.6875 C 4.890625 -22.664062 5.1875 -22.757812 5.46875 -22.96875 C 5.757812 -23.1875 5.988281 -23.570312 6.15625 -24.125 L 6.21875 -24.3125 C 6.269531 -24.476562 6.34375 -24.59375 6.4375 -24.65625 C 6.539062 -24.71875 6.726562 -24.71875 7 -24.65625 C 7.175781 -24.601562 7.3125 -24.515625 7.40625 -24.390625 C 7.507812 -24.265625 7.535156 -24.113281 7.484375 -23.9375 C 7.035156 -22.71875 6.648438 -21.570312 6.328125 -20.5 C 5.972656 -19.375 5.632812 -18.175781 5.3125 -16.90625 C 5.257812 -16.726562 5.15625 -16.613281 5 -16.5625 C 4.851562 -16.519531 4.691406 -16.523438 4.515625 -16.578125 C 4.222656 -16.679688 4.0625 -16.789062 4.03125 -16.90625 C 4 -17.03125 4.023438 -17.226562 4.109375 -17.5 C 4.285156 -18.0625 4.316406 -18.503906 4.203125 -18.828125 C 4.085938 -19.160156 3.890625 -19.40625 3.609375 -19.5625 C 3.335938 -19.71875 2.957031 -19.882812 2.46875 -20.0625 L -9.03125 -23.609375 L -9.046875 -23.53125 L 3.84375 -13.015625 C 4.03125 -12.878906 4.078125 -12.65625 3.984375 -12.34375 Z M 3.984375 -12.34375 "/></g></g></g><g fill="#000000" fill-opacity="1"><g transform="translate(42.866998, 96.328638)"><g><path d="M 0.96875 -1.53125 C 0.882812 -1.375 0.757812 -1.285156 0.59375 -1.265625 C 0.4375 -1.242188 0.28125 -1.28125 0.125 -1.375 C -0.125 -1.550781 -0.25 -1.703125 -0.25 -1.828125 C -0.25 -1.960938 -0.1875 -2.144531 -0.0625 -2.375 C 0.226562 -2.882812 0.351562 -3.3125 0.3125 -3.65625 C 0.269531 -4 0.140625 -4.28125 -0.078125 -4.5 C -0.296875 -4.726562 -0.632812 -4.976562 -1.09375 -5.25 L -11.5625 -11.203125 C -12.007812 -11.441406 -12.382812 -11.597656 -12.6875 -11.671875 C -13 -11.753906 -13.316406 -11.722656 -13.640625 -11.578125 C -13.960938 -11.441406 -14.269531 -11.117188 -14.5625 -10.609375 L -14.65625 -10.453125 C -14.738281 -10.296875 -14.832031 -10.191406 -14.9375 -10.140625 C -15.050781 -10.097656 -15.238281 -10.140625 -15.5 -10.265625 C -15.65625 -10.347656 -15.765625 -10.460938 -15.828125 -10.609375 C -15.890625 -10.753906 -15.878906 -10.90625 -15.796875 -11.0625 C -15.097656 -12.175781 -14.484375 -13.210938 -13.953125 -14.171875 C -13.347656 -15.222656 -12.742188 -16.328125 -12.140625 -17.484375 C -12.046875 -17.648438 -11.921875 -17.738281 -11.765625 -17.75 C -11.617188 -17.757812 -11.46875 -17.722656 -11.3125 -17.640625 C -11.0625 -17.472656 -10.929688 -17.320312 -10.921875 -17.1875 C -10.921875 -17.0625 -10.988281 -16.878906 -11.125 -16.640625 C -11.414062 -16.128906 -11.539062 -15.695312 -11.5 -15.34375 C -11.457031 -15 -11.316406 -14.71875 -11.078125 -14.5 C -10.835938 -14.28125 -10.507812 -14.039062 -10.09375 -13.78125 L 0.375 -7.828125 C 0.820312 -7.597656 1.195312 -7.4375 1.5 -7.34375 C 1.8125 -7.25 2.128906 -7.273438 2.453125 -7.421875 C 2.773438 -7.566406 3.082031 -7.894531 3.375 -8.40625 L 3.46875 -8.5625 C 3.5625 -8.738281 3.660156 -8.847656 3.765625 -8.890625 C 3.867188 -8.929688 4.050781 -8.882812 4.3125 -8.75 C 4.46875 -8.65625 4.582031 -8.539062 4.65625 -8.40625 C 4.726562 -8.269531 4.71875 -8.117188 4.625 -7.953125 C 3.9375 -6.859375 3.289062 -5.785156 2.6875 -4.734375 C 2.144531 -3.765625 1.570312 -2.695312 0.96875 -1.53125 Z M 0.96875 -1.53125 "/></g></g></g><g fill="#000000" fill-opacity="1"><g transform="translate(46.836358, 87.943642)"><g><path d="M 1.25 -1.3125 C 1.15625 -1.195312 1.023438 -1.144531 0.859375 -1.15625 C 0.703125 -1.164062 0.550781 -1.234375 0.40625 -1.359375 C 0.1875 -1.578125 0.0859375 -1.742188 0.109375 -1.859375 C 0.128906 -1.984375 0.234375 -2.148438 0.421875 -2.359375 C 0.796875 -2.804688 0.992188 -3.203125 1.015625 -3.546875 C 1.035156 -3.898438 0.953125 -4.207031 0.765625 -4.46875 C 0.578125 -4.726562 0.296875 -5.023438 -0.078125 -5.359375 L -9.21875 -13.171875 C -9.625 -13.484375 -9.96875 -13.710938 -10.25 -13.859375 C -10.53125 -14.003906 -10.84375 -14.039062 -11.1875 -13.96875 C -11.539062 -13.894531 -11.90625 -13.632812 -12.28125 -13.1875 L -12.40625 -13.046875 C -12.53125 -12.898438 -12.644531 -12.816406 -12.75 -12.796875 C -12.863281 -12.785156 -13.035156 -12.863281 -13.265625 -13.03125 C -13.398438 -13.144531 -13.484375 -13.28125 -13.515625 -13.4375 C -13.554688 -13.59375 -13.53125 -13.726562 -13.4375 -13.84375 C -12.53125 -14.832031 -11.726562 -15.734375 -11.03125 -16.546875 L -7.953125 -20.140625 C -6.691406 -21.617188 -5.25 -22.703125 -3.625 -23.390625 C -2.007812 -24.085938 -0.351562 -24.316406 1.34375 -24.078125 C 3.050781 -23.835938 4.660156 -23.078125 6.171875 -21.796875 C 7.734375 -20.453125 8.71875 -18.921875 9.125 -17.203125 C 9.53125 -15.492188 9.457031 -13.773438 8.90625 -12.046875 C 8.351562 -10.328125 7.460938 -8.75 6.234375 -7.3125 L 3.515625 -4.125 C 2.816406 -3.3125 2.0625 -2.375 1.25 -1.3125 Z M 5.671875 -8.390625 C 7.210938 -10.179688 7.785156 -11.96875 7.390625 -13.75 C 6.992188 -15.539062 5.796875 -17.289062 3.796875 -19 C 2.535156 -20.070312 1.21875 -20.800781 -0.15625 -21.1875 C -1.539062 -21.582031 -2.878906 -21.582031 -4.171875 -21.1875 C -5.460938 -20.800781 -6.613281 -20.019531 -7.625 -18.84375 L -9.125 -17.03125 L 2.140625 -7.40625 C 2.742188 -6.894531 3.304688 -6.722656 3.828125 -6.890625 C 4.359375 -7.066406 4.972656 -7.566406 5.671875 -8.390625 Z M 5.671875 -8.390625 "/></g></g></g><g fill="#000000" fill-opacity="1"><g transform="translate(59.363545, 72.772176)"><g><path d="M 1.578125 -1 C 1.429688 -0.894531 1.285156 -0.867188 1.140625 -0.921875 C 0.992188 -0.984375 0.867188 -1.085938 0.765625 -1.234375 C 0.597656 -1.492188 0.539062 -1.675781 0.59375 -1.78125 C 0.644531 -1.894531 0.785156 -2.035156 1.015625 -2.203125 C 1.492188 -2.535156 1.78125 -2.863281 1.875 -3.1875 C 1.976562 -3.519531 1.972656 -3.820312 1.859375 -4.09375 C 1.742188 -4.363281 1.539062 -4.734375 1.25 -5.203125 L -5.59375 -15.09375 C -5.9375 -15.59375 -6.25 -15.929688 -6.53125 -16.109375 C -6.8125 -16.296875 -7.109375 -16.363281 -7.421875 -16.3125 C -7.742188 -16.257812 -8.148438 -16.128906 -8.640625 -15.921875 C -8.953125 -15.773438 -9.160156 -15.695312 -9.265625 -15.6875 C -9.367188 -15.6875 -9.503906 -15.804688 -9.671875 -16.046875 C -9.804688 -16.242188 -9.835938 -16.414062 -9.765625 -16.5625 C -9.703125 -16.707031 -9.554688 -16.863281 -9.328125 -17.03125 C -8.304688 -17.738281 -7.445312 -18.234375 -6.75 -18.515625 C -6.050781 -18.796875 -5.347656 -18.910156 -4.640625 -18.859375 C -3.929688 -18.804688 -3.050781 -18.597656 -2 -18.234375 L 11.078125 -14.046875 L 11.140625 -14.09375 L 5.125 -22.578125 C 4.8125 -23.015625 4.546875 -23.335938 4.328125 -23.546875 C 4.109375 -23.753906 3.828125 -23.867188 3.484375 -23.890625 C 3.140625 -23.910156 2.722656 -23.75 2.234375 -23.40625 L 2.09375 -23.3125 C 1.925781 -23.1875 1.785156 -23.128906 1.671875 -23.140625 C 1.554688 -23.148438 1.40625 -23.265625 1.21875 -23.484375 C 1.125 -23.628906 1.078125 -23.78125 1.078125 -23.9375 C 1.085938 -24.101562 1.160156 -24.238281 1.296875 -24.34375 C 2.390625 -25.039062 3.203125 -25.570312 3.734375 -25.9375 C 4.046875 -26.15625 4.640625 -26.585938 5.515625 -27.234375 L 6.015625 -27.625 C 6.171875 -27.738281 6.320312 -27.765625 6.46875 -27.703125 C 6.625 -27.640625 6.75 -27.535156 6.84375 -27.390625 C 7 -27.128906 7.050781 -26.945312 7 -26.84375 C 6.957031 -26.738281 6.820312 -26.609375 6.59375 -26.453125 C 6.101562 -26.109375 5.804688 -25.769531 5.703125 -25.4375 C 5.609375 -25.101562 5.617188 -24.800781 5.734375 -24.53125 C 5.847656 -24.257812 6.050781 -23.890625 6.34375 -23.421875 L 15.0625 -10.890625 C 15.1875 -10.660156 15.050781 -10.40625 14.65625 -10.125 C 14.332031 -9.894531 14.019531 -9.835938 13.71875 -9.953125 L -4.40625 -15.921875 L -4.46875 -15.875 L 2.46875 -6.046875 C 2.789062 -5.609375 3.0625 -5.285156 3.28125 -5.078125 C 3.5 -4.878906 3.78125 -4.769531 4.125 -4.75 C 4.46875 -4.738281 4.878906 -4.898438 5.359375 -5.234375 L 5.515625 -5.34375 C 5.671875 -5.457031 5.804688 -5.507812 5.921875 -5.5 C 6.046875 -5.488281 6.203125 -5.375 6.390625 -5.15625 C 6.492188 -5.007812 6.539062 -4.851562 6.53125 -4.6875 C 6.53125 -4.53125 6.457031 -4.398438 6.3125 -4.296875 C 5.21875 -3.609375 4.398438 -3.070312 3.859375 -2.6875 C 3.523438 -2.457031 2.953125 -2.035156 2.140625 -1.421875 Z M 1.578125 -1 "/></g></g></g><g fill="#000000" fill-opacity="1"><g transform="translate(76.324497, 61.368214)"><g><path d="M 1.6875 -0.65625 C 1.519531 -0.582031 1.367188 -0.582031 1.234375 -0.65625 C 1.097656 -0.738281 0.992188 -0.867188 0.921875 -1.046875 C 0.816406 -1.328125 0.800781 -1.519531 0.875 -1.625 C 0.957031 -1.726562 1.117188 -1.832031 1.359375 -1.9375 C 1.890625 -2.175781 2.238281 -2.445312 2.40625 -2.75 C 2.582031 -3.050781 2.648438 -3.359375 2.609375 -3.671875 C 2.566406 -3.984375 2.445312 -4.382812 2.25 -4.875 L -2.640625 -15.875 C -2.867188 -16.34375 -3.082031 -16.695312 -3.28125 -16.9375 C -3.488281 -17.175781 -3.757812 -17.335938 -4.09375 -17.421875 C -4.4375 -17.503906 -4.875 -17.425781 -5.40625 -17.1875 L -5.578125 -17.109375 C -5.742188 -17.035156 -5.882812 -17.015625 -6 -17.046875 C -6.113281 -17.078125 -6.238281 -17.21875 -6.375 -17.46875 C -6.445312 -17.625 -6.46875 -17.78125 -6.4375 -17.9375 C -6.40625 -18.09375 -6.304688 -18.207031 -6.140625 -18.28125 C -4.921875 -18.757812 -3.8125 -19.222656 -2.8125 -19.671875 C -1.707031 -20.160156 -0.566406 -20.695312 0.609375 -21.28125 C 0.785156 -21.363281 0.9375 -21.359375 1.0625 -21.265625 C 1.195312 -21.179688 1.300781 -21.0625 1.375 -20.90625 C 1.476562 -20.625 1.492188 -20.429688 1.421875 -20.328125 C 1.347656 -20.222656 1.1875 -20.113281 0.9375 -20 C 0.394531 -19.757812 0.0351562 -19.484375 -0.140625 -19.171875 C -0.316406 -18.867188 -0.367188 -18.5625 -0.296875 -18.25 C -0.234375 -17.9375 -0.113281 -17.546875 0.0625 -17.078125 L 4.953125 -6.078125 C 5.179688 -5.628906 5.390625 -5.273438 5.578125 -5.015625 C 5.765625 -4.753906 6.03125 -4.582031 6.375 -4.5 C 6.71875 -4.425781 7.160156 -4.507812 7.703125 -4.75 L 7.859375 -4.828125 C 8.046875 -4.910156 8.191406 -4.9375 8.296875 -4.90625 C 8.410156 -4.875 8.535156 -4.734375 8.671875 -4.484375 C 8.742188 -4.304688 8.765625 -4.144531 8.734375 -4 C 8.710938 -3.851562 8.613281 -3.738281 8.4375 -3.65625 C 7.238281 -3.1875 6.085938 -2.707031 4.984375 -2.21875 C 3.960938 -1.757812 2.863281 -1.238281 1.6875 -0.65625 Z M 1.6875 -0.65625 "/></g></g></g><g fill="#000000" fill-opacity="1"><g transform="translate(84.572842, 57.02778)"><g><path d="M 10.71875 -1.9375 C 9.007812 -1.53125 7.375 -1.519531 5.8125 -1.90625 C 4.257812 -2.289062 2.90625 -3.117188 1.75 -4.390625 C 0.59375 -5.660156 -0.238281 -7.363281 -0.75 -9.5 C -1.226562 -11.488281 -1.207031 -13.34375 -0.6875 -15.0625 C -0.164062 -16.78125 0.765625 -18.242188 2.109375 -19.453125 C 3.453125 -20.660156 5.128906 -21.503906 7.140625 -21.984375 C 8.117188 -22.210938 9.125 -22.296875 10.15625 -22.234375 C 11.195312 -22.171875 12.109375 -21.898438 12.890625 -21.421875 C 13.671875 -20.941406 14.171875 -20.242188 14.390625 -19.328125 C 14.597656 -18.460938 14.519531 -17.65625 14.15625 -16.90625 C 13.789062 -16.15625 13.191406 -15.675781 12.359375 -15.46875 C 11.941406 -15.375 11.515625 -15.378906 11.078125 -15.484375 C 10.648438 -15.585938 10.390625 -15.796875 10.296875 -16.109375 C 10.285156 -16.128906 10.390625 -16.269531 10.609375 -16.53125 C 10.828125 -16.789062 11.007812 -17.113281 11.15625 -17.5 C 11.300781 -17.882812 11.316406 -18.3125 11.203125 -18.78125 C 11.003906 -19.601562 10.519531 -20.191406 9.75 -20.546875 C 8.976562 -20.898438 8.078125 -20.957031 7.046875 -20.71875 C 5.835938 -20.425781 4.820312 -19.820312 4 -18.90625 C 3.1875 -18 2.648438 -16.820312 2.390625 -15.375 C 2.140625 -13.9375 2.226562 -12.316406 2.65625 -10.515625 C 3.070312 -8.765625 3.710938 -7.316406 4.578125 -6.171875 C 5.441406 -5.023438 6.460938 -4.234375 7.640625 -3.796875 C 8.816406 -3.359375 10.070312 -3.300781 11.40625 -3.625 C 12.03125 -3.769531 12.570312 -3.9375 13.03125 -4.125 C 13.488281 -4.3125 13.96875 -4.554688 14.46875 -4.859375 L 13.75 -7.859375 C 13.582031 -8.546875 13.441406 -9.019531 13.328125 -9.28125 C 13.222656 -9.550781 13.019531 -9.722656 12.71875 -9.796875 C 12.414062 -9.867188 11.953125 -9.828125 11.328125 -9.671875 C 11.109375 -9.628906 10.941406 -9.628906 10.828125 -9.671875 C 10.722656 -9.722656 10.628906 -9.882812 10.546875 -10.15625 C 10.492188 -10.332031 10.503906 -10.5 10.578125 -10.65625 C 10.660156 -10.8125 10.800781 -10.910156 11 -10.953125 C 12.238281 -11.179688 13.328125 -11.410156 14.265625 -11.640625 C 15.148438 -11.847656 16.203125 -12.128906 17.421875 -12.484375 C 17.597656 -12.523438 17.75 -12.492188 17.875 -12.390625 C 18 -12.285156 18.085938 -12.144531 18.140625 -11.96875 C 18.179688 -11.695312 18.160156 -11.507812 18.078125 -11.40625 C 18.003906 -11.3125 17.851562 -11.238281 17.625 -11.1875 C 17.039062 -11.050781 16.640625 -10.875 16.421875 -10.65625 C 16.203125 -10.4375 16.097656 -10.175781 16.109375 -9.875 C 16.117188 -9.570312 16.203125 -9.109375 16.359375 -8.484375 L 17.1875 -5 C 16.164062 -4.1875 15.195312 -3.554688 14.28125 -3.109375 C 13.363281 -2.671875 12.175781 -2.28125 10.71875 -1.9375 Z M 10.71875 -1.9375 "/></g></g></g><g fill="#000000" fill-opacity="1"><g transform="translate(102.548029, 52.246103)"><g><path d="M 1.84375 0.125 C 1.664062 0.125 1.53125 0.0625 1.4375 -0.0625 C 1.34375 -0.195312 1.300781 -0.359375 1.3125 -0.546875 C 1.332031 -0.847656 1.394531 -1.03125 1.5 -1.09375 C 1.613281 -1.15625 1.8125 -1.179688 2.09375 -1.171875 C 2.675781 -1.160156 3.109375 -1.253906 3.390625 -1.453125 C 3.671875 -1.660156 3.851562 -1.921875 3.9375 -2.234375 C 4.019531 -2.546875 4.078125 -2.957031 4.109375 -3.46875 L 4.34375 -15.5 C 4.332031 -16 4.296875 -16.40625 4.234375 -16.71875 C 4.171875 -17.03125 4 -17.296875 3.71875 -17.515625 C 3.4375 -17.734375 3.003906 -17.847656 2.421875 -17.859375 L 2.234375 -17.875 C 2.035156 -17.875 1.894531 -17.910156 1.8125 -17.984375 C 1.738281 -18.054688 1.691406 -18.234375 1.671875 -18.515625 C 1.679688 -18.691406 1.734375 -18.84375 1.828125 -18.96875 C 1.921875 -19.101562 2.054688 -19.171875 2.234375 -19.171875 C 3.546875 -19.085938 4.738281 -19.035156 5.8125 -19.015625 C 7.019531 -18.992188 8.28125 -18.992188 9.59375 -19.015625 C 9.78125 -19.015625 9.914062 -18.945312 10 -18.8125 C 10.09375 -18.675781 10.132812 -18.519531 10.125 -18.34375 C 10.101562 -18.039062 10.039062 -17.859375 9.9375 -17.796875 C 9.832031 -17.742188 9.640625 -17.71875 9.359375 -17.71875 C 8.773438 -17.726562 8.335938 -17.628906 8.046875 -17.421875 C 7.765625 -17.210938 7.582031 -16.953125 7.5 -16.640625 C 7.425781 -16.335938 7.375 -15.9375 7.34375 -15.4375 L 7.234375 -10.0625 L 16.75 -9.859375 L 16.859375 -15.234375 C 16.847656 -15.734375 16.8125 -16.140625 16.75 -16.453125 C 16.6875 -16.773438 16.515625 -17.046875 16.234375 -17.265625 C 15.953125 -17.484375 15.519531 -17.597656 14.9375 -17.609375 L 14.75 -17.609375 C 14.550781 -17.617188 14.40625 -17.660156 14.3125 -17.734375 C 14.226562 -17.804688 14.175781 -17.984375 14.15625 -18.265625 C 14.164062 -18.441406 14.222656 -18.59375 14.328125 -18.71875 C 14.429688 -18.851562 14.5625 -18.914062 14.71875 -18.90625 C 16.03125 -18.832031 17.296875 -18.78125 18.515625 -18.75 C 19.617188 -18.726562 20.816406 -18.734375 22.109375 -18.765625 C 22.296875 -18.753906 22.429688 -18.679688 22.515625 -18.546875 C 22.609375 -18.421875 22.648438 -18.269531 22.640625 -18.09375 C 22.617188 -17.789062 22.550781 -17.609375 22.4375 -17.546875 C 22.320312 -17.484375 22.132812 -17.457031 21.875 -17.46875 C 21.28125 -17.476562 20.835938 -17.378906 20.546875 -17.171875 C 20.253906 -16.960938 20.066406 -16.703125 19.984375 -16.390625 C 19.910156 -16.078125 19.859375 -15.671875 19.828125 -15.171875 L 19.59375 -3.140625 C 19.601562 -2.628906 19.632812 -2.21875 19.6875 -1.90625 C 19.75 -1.59375 19.925781 -1.328125 20.21875 -1.109375 C 20.507812 -0.898438 20.953125 -0.789062 21.546875 -0.78125 L 21.71875 -0.78125 C 21.90625 -0.769531 22.039062 -0.726562 22.125 -0.65625 C 22.207031 -0.582031 22.257812 -0.40625 22.28125 -0.125 C 22.269531 0.0625 22.21875 0.21875 22.125 0.34375 C 22.039062 0.476562 21.90625 0.539062 21.71875 0.53125 C 20.425781 0.445312 19.21875 0.394531 18.09375 0.375 C 16.894531 0.34375 15.640625 0.347656 14.328125 0.390625 C 14.171875 0.378906 14.039062 0.304688 13.9375 0.171875 C 13.832031 0.046875 13.785156 -0.109375 13.796875 -0.296875 C 13.816406 -0.597656 13.882812 -0.773438 14 -0.828125 C 14.125 -0.890625 14.328125 -0.921875 14.609375 -0.921875 C 15.191406 -0.910156 15.625 -1.003906 15.90625 -1.203125 C 16.1875 -1.410156 16.367188 -1.664062 16.453125 -1.96875 C 16.535156 -2.28125 16.59375 -2.691406 16.625 -3.203125 L 16.734375 -8.5625 L 7.21875 -8.765625 L 7.109375 -3.40625 C 7.117188 -2.894531 7.148438 -2.476562 7.203125 -2.15625 C 7.265625 -1.84375 7.4375 -1.578125 7.71875 -1.359375 C 8.007812 -1.148438 8.445312 -1.039062 9.03125 -1.03125 L 9.21875 -1.03125 C 9.414062 -1.03125 9.550781 -0.988281 9.625 -0.90625 C 9.695312 -0.832031 9.742188 -0.65625 9.765625 -0.375 C 9.753906 -0.1875 9.703125 -0.03125 9.609375 0.09375 C 9.523438 0.21875 9.390625 0.28125 9.203125 0.28125 C 7.910156 0.195312 6.660156 0.140625 5.453125 0.109375 C 4.359375 0.0859375 3.15625 0.09375 1.84375 0.125 Z M 1.84375 0.125 "/></g></g></g><g fill="#000000" fill-opacity="1"><g transform="translate(123.785662, 52.727464)"><g><path d="M 5.203125 1.484375 C 5.035156 1.441406 4.925781 1.34375 4.875 1.1875 C 4.820312 1.039062 4.820312 0.875 4.875 0.6875 C 4.957031 0.40625 5.054688 0.25 5.171875 0.21875 C 5.296875 0.1875 5.492188 0.207031 5.765625 0.28125 C 6.328125 0.425781 6.769531 0.429688 7.09375 0.296875 C 7.414062 0.171875 7.65625 -0.03125 7.8125 -0.3125 C 7.96875 -0.59375 8.117188 -0.976562 8.265625 -1.46875 L 11.984375 -15.4375 L 9.953125 -15.96875 C 9.273438 -16.125 8.722656 -16.117188 8.296875 -15.953125 C 7.867188 -15.785156 7.492188 -15.46875 7.171875 -15 C 6.847656 -14.539062 6.488281 -13.851562 6.09375 -12.9375 C 6.039062 -12.769531 5.890625 -12.664062 5.640625 -12.625 C 5.398438 -12.59375 5.164062 -12.609375 4.9375 -12.671875 C 4.75 -12.722656 4.597656 -12.816406 4.484375 -12.953125 C 4.367188 -13.097656 4.332031 -13.265625 4.375 -13.453125 L 5.5625 -17.546875 C 5.6875 -18.023438 6.015625 -18.191406 6.546875 -18.046875 L 20.875 -14.234375 C 21.375 -14.109375 21.5625 -13.804688 21.4375 -13.328125 L 20.46875 -9.1875 C 20.425781 -9 20.3125 -8.875 20.125 -8.8125 C 19.9375 -8.75 19.75 -8.738281 19.5625 -8.78125 C 19.332031 -8.84375 19.125 -8.945312 18.9375 -9.09375 C 18.757812 -9.25 18.6875 -9.410156 18.71875 -9.578125 C 18.820312 -10.597656 18.851562 -11.378906 18.8125 -11.921875 C 18.769531 -12.472656 18.597656 -12.929688 18.296875 -13.296875 C 17.992188 -13.660156 17.519531 -13.941406 16.875 -14.140625 L 14.875 -14.671875 L 11.15625 -0.703125 C 11.050781 -0.203125 10.988281 0.203125 10.96875 0.515625 C 10.957031 0.835938 11.0625 1.132812 11.28125 1.40625 C 11.5 1.6875 11.894531 1.90625 12.46875 2.0625 L 12.640625 2.109375 C 12.816406 2.148438 12.9375 2.21875 13 2.3125 C 13.0625 2.40625 13.070312 2.585938 13.03125 2.859375 C 12.976562 3.046875 12.890625 3.191406 12.765625 3.296875 C 12.648438 3.398438 12.503906 3.425781 12.328125 3.375 C 11.097656 2.976562 9.953125 2.640625 8.890625 2.359375 C 7.722656 2.046875 6.492188 1.753906 5.203125 1.484375 Z M 5.203125 1.484375 "/></g></g></g><g fill="#000000" fill-opacity="1"><g transform="translate(139.895967, 57.327204)"><g/></g></g><g fill="#000000" fill-opacity="1"><g transform="translate(145.053503, 58.97283)"><g><path d="M 4.59375 2.890625 C 4.4375 2.796875 4.351562 2.671875 4.34375 2.515625 C 4.332031 2.359375 4.375 2.195312 4.46875 2.03125 C 4.632812 1.789062 4.773438 1.664062 4.890625 1.65625 C 5.015625 1.65625 5.203125 1.726562 5.453125 1.875 C 5.941406 2.175781 6.363281 2.3125 6.71875 2.28125 C 7.070312 2.25 7.359375 2.117188 7.578125 1.890625 C 7.804688 1.671875 8.0625 1.347656 8.34375 0.921875 L 15.84375 -11.4375 L 14.0625 -12.53125 C 13.457031 -12.863281 12.921875 -13.007812 12.453125 -12.96875 C 11.992188 -12.925781 11.546875 -12.726562 11.109375 -12.375 C 10.671875 -12.019531 10.132812 -11.453125 9.5 -10.671875 C 9.394531 -10.546875 9.222656 -10.5 8.984375 -10.53125 C 8.742188 -10.5625 8.519531 -10.640625 8.3125 -10.765625 C 8.15625 -10.859375 8.039062 -10.988281 7.96875 -11.15625 C 7.894531 -11.332031 7.90625 -11.503906 8 -11.671875 L 10.296875 -15.265625 C 10.546875 -15.679688 10.90625 -15.742188 11.375 -15.453125 L 24.03125 -7.765625 C 24.476562 -7.492188 24.578125 -7.148438 24.328125 -6.734375 L 22.21875 -3.03125 C 22.125 -2.863281 21.976562 -2.773438 21.78125 -2.765625 C 21.59375 -2.753906 21.414062 -2.800781 21.25 -2.90625 C 21.039062 -3.03125 20.867188 -3.191406 20.734375 -3.390625 C 20.609375 -3.585938 20.585938 -3.753906 20.671875 -3.890625 C 21.054688 -4.847656 21.300781 -5.597656 21.40625 -6.140625 C 21.519531 -6.679688 21.484375 -7.164062 21.296875 -7.59375 C 21.117188 -8.03125 20.742188 -8.4375 20.171875 -8.8125 L 18.40625 -9.890625 L 10.90625 2.46875 C 10.65625 2.925781 10.476562 3.300781 10.375 3.59375 C 10.269531 3.894531 10.28125 4.207031 10.40625 4.53125 C 10.539062 4.851562 10.863281 5.171875 11.375 5.484375 L 11.515625 5.578125 C 11.679688 5.671875 11.78125 5.769531 11.8125 5.875 C 11.851562 5.988281 11.8125 6.171875 11.6875 6.421875 C 11.59375 6.585938 11.472656 6.703125 11.328125 6.765625 C 11.191406 6.828125 11.039062 6.8125 10.875 6.71875 C 9.800781 5.988281 8.796875 5.34375 7.859375 4.78125 C 6.828125 4.15625 5.738281 3.523438 4.59375 2.890625 Z M 4.59375 2.890625 "/></g></g></g><g fill="#000000" fill-opacity="1"><g transform="translate(158.996119, 67.20907)"><g><path d="M 1.265625 1.296875 C 1.148438 1.191406 1.101562 1.0625 1.125 0.90625 C 1.144531 0.75 1.21875 0.601562 1.34375 0.46875 C 1.5625 0.257812 1.726562 0.164062 1.84375 0.1875 C 1.96875 0.21875 2.128906 0.328125 2.328125 0.515625 C 2.753906 0.921875 3.144531 1.144531 3.5 1.1875 C 3.851562 1.226562 4.160156 1.15625 4.421875 0.96875 C 4.691406 0.789062 5.003906 0.519531 5.359375 0.15625 L 13.59375 -8.609375 C 13.925781 -8.984375 14.171875 -9.304688 14.328125 -9.578125 C 14.492188 -9.859375 14.546875 -10.171875 14.484375 -10.515625 C 14.421875 -10.867188 14.175781 -11.25 13.75 -11.65625 L 13.625 -11.78125 C 13.476562 -11.914062 13.394531 -12.035156 13.375 -12.140625 C 13.363281 -12.253906 13.453125 -12.421875 13.640625 -12.640625 C 13.765625 -12.765625 13.90625 -12.84375 14.0625 -12.875 C 14.21875 -12.90625 14.351562 -12.867188 14.46875 -12.765625 C 15.394531 -11.816406 16.25 -10.976562 17.03125 -10.25 L 23.96875 -3.734375 C 24.351562 -3.378906 24.378906 -3.023438 24.046875 -2.671875 L 21.21875 0.484375 C 21.082031 0.617188 20.910156 0.664062 20.703125 0.625 C 20.503906 0.582031 20.335938 0.503906 20.203125 0.390625 C 20.023438 0.222656 19.898438 0.046875 19.828125 -0.140625 C 19.765625 -0.335938 19.785156 -0.507812 19.890625 -0.65625 C 20.453125 -1.488281 20.835938 -2.160156 21.046875 -2.671875 C 21.265625 -3.179688 21.320312 -3.648438 21.21875 -4.078125 C 21.125 -4.515625 20.832031 -4.976562 20.34375 -5.46875 L 17.375 -8.25 L 12.109375 -2.625 L 16.109375 1.125 C 16.203125 1.21875 16.226562 1.34375 16.1875 1.5 C 16.15625 1.65625 16.082031 1.800781 15.96875 1.9375 C 15.851562 2.050781 15.722656 2.125 15.578125 2.15625 C 15.441406 2.1875 15.320312 2.15625 15.21875 2.0625 L 11.21875 -1.6875 L 7.3125 2.484375 C 7.039062 2.828125 6.835938 3.109375 6.703125 3.328125 C 6.578125 3.554688 6.554688 3.847656 6.640625 4.203125 C 6.734375 4.554688 7.019531 4.945312 7.5 5.375 L 9.53125 7.28125 C 10.0625 7.75 10.53125 8.03125 10.9375 8.125 C 11.351562 8.21875 11.789062 8.171875 12.25 7.984375 C 12.707031 7.804688 13.390625 7.457031 14.296875 6.9375 C 14.648438 6.769531 15 6.894531 15.34375 7.3125 C 15.46875 7.488281 15.539062 7.675781 15.5625 7.875 C 15.59375 8.070312 15.539062 8.222656 15.40625 8.328125 L 12.34375 10.703125 C 12.125 10.847656 11.941406 10.910156 11.796875 10.890625 C 11.648438 10.867188 11.472656 10.765625 11.265625 10.578125 L 3.984375 3.734375 C 3.179688 2.984375 2.273438 2.171875 1.265625 1.296875 Z M 1.265625 1.296875 "/></g></g></g><g fill="#000000" fill-opacity="1"><g transform="translate(170.838475, 77.912963)"><g><path d="M 5.65625 9.265625 C 4.675781 7.859375 4.117188 6.335938 3.984375 4.703125 C 3.847656 3.066406 4.164062 1.472656 4.9375 -0.078125 C 5.71875 -1.628906 6.941406 -2.976562 8.609375 -4.125 C 10.285156 -5.28125 11.988281 -5.960938 13.71875 -6.171875 C 15.457031 -6.390625 17.101562 -6.128906 18.65625 -5.390625 C 20.21875 -4.648438 21.566406 -3.457031 22.703125 -1.8125 C 23.679688 -0.375 24.269531 1.097656 24.46875 2.609375 C 24.664062 4.117188 24.164062 5.285156 22.96875 6.109375 C 22.238281 6.640625 21.445312 6.851562 20.59375 6.75 C 19.738281 6.644531 19.039062 6.203125 18.5 5.421875 C 18.300781 5.117188 18.1875 4.820312 18.15625 4.53125 C 18.125 4.25 18.148438 4.003906 18.234375 3.796875 C 18.316406 3.597656 18.398438 3.476562 18.484375 3.4375 C 18.515625 3.414062 18.6875 3.46875 19 3.59375 C 19.3125 3.726562 19.660156 3.796875 20.046875 3.796875 C 20.441406 3.796875 20.832031 3.664062 21.21875 3.40625 C 21.96875 2.882812 22.390625 2.21875 22.484375 1.40625 C 22.578125 0.601562 22.3125 -0.242188 21.6875 -1.140625 C 20.988281 -2.148438 20.078125 -2.851562 18.953125 -3.25 C 17.835938 -3.644531 16.578125 -3.679688 15.171875 -3.359375 C 13.765625 -3.046875 12.296875 -2.363281 10.765625 -1.3125 C 9.441406 -0.394531 8.394531 0.671875 7.625 1.890625 C 6.863281 3.117188 6.457031 4.382812 6.40625 5.6875 C 6.363281 7 6.722656 8.210938 7.484375 9.328125 C 8.109375 10.234375 8.828125 10.875 9.640625 11.25 C 10.460938 11.632812 11.46875 11.800781 12.65625 11.75 C 12.851562 11.726562 13.003906 11.789062 13.109375 11.9375 C 13.203125 12.070312 13.257812 12.253906 13.28125 12.484375 C 13.269531 12.867188 13.175781 13.125 13 13.25 C 12.894531 13.320312 12.789062 13.351562 12.6875 13.34375 C 11.445312 13.257812 10.429688 13.078125 9.640625 12.796875 C 8.859375 12.523438 8.164062 12.113281 7.5625 11.5625 C 6.96875 11.019531 6.332031 10.253906 5.65625 9.265625 Z M 5.65625 9.265625 "/></g></g></g><g fill="#000000" fill-opacity="1"><g transform="translate(180.971556, 91.668123)"><g><path d="M 0.546875 1.765625 C 0.484375 1.597656 0.5 1.445312 0.59375 1.3125 C 0.6875 1.175781 0.820312 1.078125 1 1.015625 C 1.289062 0.929688 1.484375 0.925781 1.578125 1 C 1.671875 1.070312 1.765625 1.242188 1.859375 1.515625 C 2.066406 2.054688 2.316406 2.421875 2.609375 2.609375 C 2.910156 2.804688 3.21875 2.882812 3.53125 2.84375 C 3.851562 2.800781 4.253906 2.703125 4.734375 2.546875 L 16 -1.671875 C 16.46875 -1.859375 16.832031 -2.039062 17.09375 -2.21875 C 17.363281 -2.394531 17.550781 -2.65625 17.65625 -3 C 17.757812 -3.34375 17.707031 -3.785156 17.5 -4.328125 L 17.4375 -4.515625 C 17.363281 -4.691406 17.347656 -4.832031 17.390625 -4.9375 C 17.429688 -5.039062 17.578125 -5.148438 17.828125 -5.265625 C 17.992188 -5.328125 18.148438 -5.335938 18.296875 -5.296875 C 18.453125 -5.253906 18.5625 -5.148438 18.625 -4.984375 C 19.039062 -3.734375 19.4375 -2.609375 19.8125 -1.609375 C 20.238281 -0.472656 20.703125 0.695312 21.203125 1.90625 C 21.265625 2.082031 21.25 2.234375 21.15625 2.359375 C 21.070312 2.492188 20.945312 2.59375 20.78125 2.65625 C 20.488281 2.738281 20.296875 2.742188 20.203125 2.671875 C 20.117188 2.597656 20.023438 2.429688 19.921875 2.171875 C 19.722656 1.617188 19.472656 1.25 19.171875 1.0625 C 18.867188 0.875 18.554688 0.800781 18.234375 0.84375 C 17.921875 0.882812 17.523438 0.984375 17.046875 1.140625 L 12.015625 3.03125 L 15.34375 11.9375 L 20.375 10.046875 C 20.84375 9.859375 21.207031 9.675781 21.46875 9.5 C 21.738281 9.320312 21.925781 9.0625 22.03125 8.71875 C 22.132812 8.382812 22.082031 7.941406 21.875 7.390625 L 21.8125 7.21875 C 21.738281 7.03125 21.71875 6.878906 21.75 6.765625 C 21.789062 6.648438 21.9375 6.535156 22.1875 6.421875 C 22.351562 6.359375 22.515625 6.351562 22.671875 6.40625 C 22.828125 6.457031 22.9375 6.554688 23 6.703125 C 23.414062 7.953125 23.835938 9.148438 24.265625 10.296875 C 24.648438 11.328125 25.085938 12.4375 25.578125 13.625 C 25.640625 13.800781 25.625 13.953125 25.53125 14.078125 C 25.445312 14.210938 25.320312 14.3125 25.15625 14.375 C 24.875 14.457031 24.679688 14.457031 24.578125 14.375 C 24.484375 14.289062 24.390625 14.128906 24.296875 13.890625 C 24.097656 13.335938 23.84375 12.960938 23.53125 12.765625 C 23.226562 12.566406 22.914062 12.488281 22.59375 12.53125 C 22.28125 12.582031 21.890625 12.679688 21.421875 12.828125 L 10.15625 17.046875 C 9.675781 17.242188 9.300781 17.425781 9.03125 17.59375 C 8.769531 17.769531 8.59375 18.03125 8.5 18.375 C 8.40625 18.726562 8.457031 19.179688 8.65625 19.734375 L 8.71875 19.890625 C 8.789062 20.066406 8.804688 20.207031 8.765625 20.3125 C 8.734375 20.425781 8.585938 20.539062 8.328125 20.65625 C 8.148438 20.71875 7.984375 20.726562 7.828125 20.6875 C 7.671875 20.65625 7.5625 20.550781 7.5 20.375 C 7.113281 19.144531 6.722656 18.003906 6.328125 16.953125 C 5.910156 15.828125 5.441406 14.660156 4.921875 13.453125 C 4.859375 13.304688 4.867188 13.160156 4.953125 13.015625 C 5.046875 12.867188 5.179688 12.765625 5.359375 12.703125 C 5.648438 12.617188 5.84375 12.617188 5.9375 12.703125 C 6.039062 12.796875 6.140625 12.972656 6.234375 13.234375 C 6.441406 13.785156 6.691406 14.15625 6.984375 14.34375 C 7.285156 14.53125 7.59375 14.601562 7.90625 14.5625 C 8.226562 14.519531 8.628906 14.421875 9.109375 14.265625 L 14.125 12.390625 L 10.796875 3.484375 L 5.78125 5.359375 C 5.3125 5.546875 4.941406 5.726562 4.671875 5.90625 C 4.410156 6.082031 4.226562 6.335938 4.125 6.671875 C 4.03125 7.015625 4.082031 7.460938 4.28125 8.015625 L 4.359375 8.1875 C 4.421875 8.375 4.429688 8.515625 4.390625 8.609375 C 4.347656 8.710938 4.203125 8.820312 3.953125 8.9375 C 3.773438 9 3.609375 9.007812 3.453125 8.96875 C 3.296875 8.9375 3.1875 8.832031 3.125 8.65625 C 2.738281 7.425781 2.332031 6.242188 1.90625 5.109375 C 1.519531 4.085938 1.066406 2.972656 0.546875 1.765625 Z M 0.546875 1.765625 "/></g></g></g><g fill="#000000" fill-opacity="1"><g transform="translate(188.048469, 112.290264)"><g/></g></g><g fill="#0e100f" fill-opacity="1"><g transform="translate(18.45156, 133.399677)"><g><path d="M 0.75 0 L 0.75 -6.203125 L 4.8125 -6.203125 L 4.8125 -5.015625 L 2.140625 -5.015625 L 2.140625 -3.734375 L 4.578125 -3.734375 L 4.578125 -2.546875 L 2.140625 -2.546875 L 2.140625 -1.203125 L 4.921875 -1.203125 L 4.921875 0 Z M 0.75 0 "/></g></g></g><g fill="#0e100f" fill-opacity="1"><g transform="translate(23.810306, 133.399677)"><g><path d="M 2.90625 0.125 C 2.382812 0.125 1.9375 0.0390625 1.5625 -0.125 C 1.1875 -0.300781 0.894531 -0.546875 0.6875 -0.859375 C 0.488281 -1.179688 0.390625 -1.550781 0.390625 -1.96875 L 1.765625 -1.96875 C 1.765625 -1.675781 1.867188 -1.445312 2.078125 -1.28125 C 2.285156 -1.113281 2.554688 -1.03125 2.890625 -1.03125 C 3.191406 -1.03125 3.425781 -1.085938 3.59375 -1.203125 C 3.769531 -1.316406 3.859375 -1.476562 3.859375 -1.6875 C 3.859375 -1.90625 3.753906 -2.082031 3.546875 -2.21875 C 3.335938 -2.351562 3.015625 -2.46875 2.578125 -2.5625 C 1.847656 -2.71875 1.304688 -2.953125 0.953125 -3.265625 C 0.609375 -3.578125 0.4375 -3.984375 0.4375 -4.484375 C 0.4375 -5.054688 0.644531 -5.503906 1.0625 -5.828125 C 1.476562 -6.160156 2.039062 -6.328125 2.75 -6.328125 C 3.238281 -6.328125 3.664062 -6.242188 4.03125 -6.078125 C 4.394531 -5.910156 4.675781 -5.671875 4.875 -5.359375 C 5.070312 -5.054688 5.171875 -4.695312 5.171875 -4.28125 L 3.8125 -4.28125 C 3.8125 -4.5625 3.71875 -4.78125 3.53125 -4.9375 C 3.351562 -5.09375 3.097656 -5.171875 2.765625 -5.171875 C 2.472656 -5.171875 2.238281 -5.113281 2.0625 -5 C 1.894531 -4.882812 1.8125 -4.722656 1.8125 -4.515625 C 1.8125 -4.328125 1.90625 -4.164062 2.09375 -4.03125 C 2.289062 -3.90625 2.625 -3.785156 3.09375 -3.671875 C 3.863281 -3.492188 4.421875 -3.25 4.765625 -2.9375 C 5.109375 -2.632812 5.28125 -2.238281 5.28125 -1.75 C 5.28125 -1.164062 5.066406 -0.707031 4.640625 -0.375 C 4.222656 -0.0390625 3.644531 0.125 2.90625 0.125 Z M 2.90625 0.125 "/></g></g></g><g fill="#0e100f" fill-opacity="1"><g transform="translate(29.478556, 133.399677)"><g><path d="M 2.234375 0 L 2.234375 -4.875 L 0.265625 -4.875 L 0.265625 -6.203125 L 5.609375 -6.203125 L 5.609375 -4.875 L 3.640625 -4.875 L 3.640625 0 Z M 2.234375 0 "/></g></g></g><g fill="#0e100f" fill-opacity="1"><g transform="translate(35.341343, 133.399677)"><g><path d="M 0.75 0 L 0.75 -6.203125 L 3.203125 -6.203125 C 3.859375 -6.203125 4.429688 -6.070312 4.921875 -5.8125 C 5.410156 -5.550781 5.789062 -5.1875 6.0625 -4.71875 C 6.332031 -4.25 6.46875 -3.707031 6.46875 -3.09375 C 6.46875 -2.476562 6.332031 -1.9375 6.0625 -1.46875 C 5.789062 -1.007812 5.410156 -0.648438 4.921875 -0.390625 C 4.429688 -0.128906 3.859375 0 3.203125 0 Z M 2.15625 -1.296875 L 3.171875 -1.296875 C 3.535156 -1.296875 3.851562 -1.367188 4.125 -1.515625 C 4.40625 -1.671875 4.625 -1.882812 4.78125 -2.15625 C 4.9375 -2.425781 5.015625 -2.738281 5.015625 -3.09375 C 5.015625 -3.46875 4.9375 -3.785156 4.78125 -4.046875 C 4.625 -4.316406 4.40625 -4.523438 4.125 -4.671875 C 3.851562 -4.828125 3.53125 -4.90625 3.15625 -4.90625 L 2.15625 -4.90625 Z M 2.15625 -1.296875 "/></g></g></g><g fill="#0e100f" fill-opacity="1"><g transform="translate(183.022804, 131.639069)"><g><path d="M 0.453125 0 L 0.453125 -1 L 3.015625 -3.1875 C 3.222656 -3.375 3.375 -3.550781 3.46875 -3.71875 C 3.570312 -3.894531 3.625 -4.078125 3.625 -4.265625 C 3.625 -4.523438 3.539062 -4.734375 3.375 -4.890625 C 3.21875 -5.046875 3.003906 -5.125 2.734375 -5.125 C 2.453125 -5.125 2.226562 -5.035156 2.0625 -4.859375 C 1.894531 -4.679688 1.804688 -4.4375 1.796875 -4.125 L 0.5 -4.125 C 0.519531 -4.8125 0.726562 -5.347656 1.125 -5.734375 C 1.53125 -6.128906 2.070312 -6.328125 2.75 -6.328125 C 3.195312 -6.328125 3.585938 -6.242188 3.921875 -6.078125 C 4.253906 -5.910156 4.515625 -5.675781 4.703125 -5.375 C 4.890625 -5.082031 4.984375 -4.734375 4.984375 -4.328125 C 4.984375 -3.984375 4.894531 -3.632812 4.71875 -3.28125 C 4.550781 -2.9375 4.257812 -2.59375 3.84375 -2.25 L 2.671875 -1.234375 L 5.109375 -1.234375 L 5.109375 0 Z M 0.453125 0 "/></g></g></g><g fill="#0e100f" fill-opacity="1"><g transform="translate(188.708744, 131.639069)"><g><path d="M 3.109375 0.125 C 2.554688 0.125 2.078125 0 1.671875 -0.25 C 1.273438 -0.507812 0.96875 -0.878906 0.75 -1.359375 C 0.539062 -1.847656 0.4375 -2.425781 0.4375 -3.09375 C 0.4375 -3.769531 0.539062 -4.347656 0.75 -4.828125 C 0.96875 -5.316406 1.273438 -5.6875 1.671875 -5.9375 C 2.078125 -6.195312 2.554688 -6.328125 3.109375 -6.328125 C 3.660156 -6.328125 4.132812 -6.195312 4.53125 -5.9375 C 4.9375 -5.6875 5.242188 -5.316406 5.453125 -4.828125 C 5.671875 -4.347656 5.78125 -3.769531 5.78125 -3.09375 C 5.78125 -2.425781 5.671875 -1.847656 5.453125 -1.359375 C 5.242188 -0.878906 4.9375 -0.507812 4.53125 -0.25 C 4.132812 0 3.660156 0.125 3.109375 0.125 Z M 1.8125 -3.09375 C 1.8125 -2.476562 1.921875 -2 2.140625 -1.65625 C 2.367188 -1.3125 2.691406 -1.140625 3.109375 -1.140625 C 3.523438 -1.140625 3.84375 -1.3125 4.0625 -1.65625 C 4.289062 -2 4.40625 -2.476562 4.40625 -3.09375 C 4.40625 -3.707031 4.289062 -4.1875 4.0625 -4.53125 C 3.84375 -4.882812 3.523438 -5.0625 3.109375 -5.0625 C 2.691406 -5.0625 2.367188 -4.882812 2.140625 -4.53125 C 1.921875 -4.1875 1.8125 -3.707031 1.8125 -3.09375 Z M 1.8125 -3.09375 "/></g></g></g><g fill="#0e100f" fill-opacity="1"><g transform="translate(194.907556, 131.639069)"><g><path d="M 0.453125 0 L 0.453125 -1 L 3.015625 -3.1875 C 3.222656 -3.375 3.375 -3.550781 3.46875 -3.71875 C 3.570312 -3.894531 3.625 -4.078125 3.625 -4.265625 C 3.625 -4.523438 3.539062 -4.734375 3.375 -4.890625 C 3.21875 -5.046875 3.003906 -5.125 2.734375 -5.125 C 2.453125 -5.125 2.226562 -5.035156 2.0625 -4.859375 C 1.894531 -4.679688 1.804688 -4.4375 1.796875 -4.125 L 0.5 -4.125 C 0.519531 -4.8125 0.726562 -5.347656 1.125 -5.734375 C 1.53125 -6.128906 2.070312 -6.328125 2.75 -6.328125 C 3.195312 -6.328125 3.585938 -6.242188 3.921875 -6.078125 C 4.253906 -5.910156 4.515625 -5.675781 4.703125 -5.375 C 4.890625 -5.082031 4.984375 -4.734375 4.984375 -4.328125 C 4.984375 -3.984375 4.894531 -3.632812 4.71875 -3.28125 C 4.550781 -2.9375 4.257812 -2.59375 3.84375 -2.25 L 2.671875 -1.234375 L 5.109375 -1.234375 L 5.109375 0 Z M 0.453125 0 "/></g></g></g><g fill="#0e100f" fill-opacity="1"><g transform="translate(200.593496, 131.639069)"><g><path d="M 2.78125 0.125 C 2.082031 0.125 1.523438 -0.0546875 1.109375 -0.421875 C 0.703125 -0.796875 0.484375 -1.300781 0.453125 -1.9375 L 1.796875 -1.9375 C 1.804688 -1.6875 1.898438 -1.484375 2.078125 -1.328125 C 2.253906 -1.179688 2.484375 -1.109375 2.765625 -1.109375 C 3.054688 -1.109375 3.289062 -1.1875 3.46875 -1.34375 C 3.644531 -1.5 3.734375 -1.707031 3.734375 -1.96875 C 3.734375 -2.226562 3.644531 -2.4375 3.46875 -2.59375 C 3.289062 -2.75 3.054688 -2.828125 2.765625 -2.828125 L 0.546875 -2.828125 L 0.84375 -6.203125 L 4.75 -6.203125 L 4.75 -4.984375 L 2.0625 -4.984375 L 1.96875 -3.921875 L 2.984375 -3.921875 C 3.398438 -3.921875 3.765625 -3.835938 4.078125 -3.671875 C 4.390625 -3.503906 4.632812 -3.269531 4.8125 -2.96875 C 4.988281 -2.664062 5.078125 -2.3125 5.078125 -1.90625 C 5.078125 -1.5 4.984375 -1.140625 4.796875 -0.828125 C 4.609375 -0.523438 4.34375 -0.289062 4 -0.125 C 3.65625 0.0390625 3.25 0.125 2.78125 0.125 Z M 2.78125 0.125 "/></g></g></g></svg>